<?xml version="1.0"?>
<svg xmlns="http://www.w3.org/2000/svg" xmlns:xlink="http://www.w3.org/1999/xlink" version="1.1" id="Capa_1" x="0px" y="0px" width="512px" height="512px" viewBox="0 0 82.654 82.654" style="enable-background:new 0 0 82.654 82.654;" xml:space="preserve"><g><g>
	<g>
		<g>
			<rect x="26.319" y="32.704" width="29.792" height="2.912" data-original="#000000" class="active-path" data-old_color="#000000" fill="#FFB229"/>
			<rect x="26.319" y="38.752" width="18.814" height="2.912" data-original="#000000" class="active-path" data-old_color="#000000" fill="#FFB229"/>
			<path d="M22.735,31.807c0-1.567,1.344-2.911,2.911-2.911h31.36c1.568,0,2.912,1.344,2.912,2.911v11.648h5.151V28     c0-2.464-2.017-4.479-4.479-4.479H49.839H32.367H21.838c-2.464,0-4.479,2.016-4.479,4.479v15.456h5.151V31.807H22.735z" data-original="#000000" class="active-path" data-old_color="#000000" fill="#FFB229"/>
			<path d="M77.167,46.816H5.487c0,13.438,7.392,25.312,18.592,31.358c-0.448,1.347-0.672,2.912-0.672,4.479h35.839     c0-1.567-0.226-3.135-0.672-4.479C69.775,72.128,77.167,60.48,77.167,46.816z" data-original="#000000" class="active-path" data-old_color="#000000" fill="#FFB229"/>
			<path d="M32.59,4.256c-5.6,6.496,2.24,15.456,0,21.729C37.966,17.92,32.143,11.872,32.59,4.256z" data-original="#000000" class="active-path" data-old_color="#000000" fill="#FFB229"/>
			<path d="M41.103,21.729c5.376-7.841-0.224-14.112,0-21.729C35.502,6.495,43.567,15.456,41.103,21.729z" data-original="#000000" class="active-path" data-old_color="#000000" fill="#FFB229"/>
			<path d="M49.839,4.256c-5.601,6.496,2.24,15.456,0,21.729C55.216,17.92,49.614,11.872,49.839,4.256z" data-original="#000000" class="active-path" data-old_color="#000000" fill="#FFB229"/>
		</g>
	</g>
</g></g> </svg>
